<?xml version="1.0" standalone="no"?>
<!DOCTYPE svg PUBLIC "-//W3C//DTD SVG 20010904//EN"
 "http://www.w3.org/TR/2001/REC-SVG-20010904/DTD/svg10.dtd">
<svg version="1.0" xmlns="http://www.w3.org/2000/svg"
 width="768.000000pt" height="768.000000pt" viewBox="0 0 768.000000 768.000000"
 preserveAspectRatio="xMidYMid meet">
<metadata>
Created by potrace 1.14, written by Peter Selinger 2001-2017
</metadata>
<g transform="translate(0.000000,768.000000) scale(0.100000,-0.100000)"
fill="#000000" stroke="none">
<path d="M2780 7663 c-14 -9 -40 -33 -59 -52 -45 -47 -70 -59 -141 -67 -33 -4
-63 -11 -66 -15 -3 -5 -22 -9 -43 -9 -38 0 -121 -48 -121 -70 0 -6 -5 -10 -11
-10 -6 0 -17 -7 -25 -15 -9 -8 -26 -16 -40 -16 -36 -2 -42 -3 -50 -11 -4 -5
-20 -8 -34 -8 -15 0 -33 -7 -40 -15 -7 -8 -18 -15 -25 -15 -7 0 -15 -7 -19
-15 -3 -8 -11 -15 -19 -15 -15 0 -57 -41 -57 -56 0 -5 -25 -34 -55 -64 -30
-30 -55 -61 -55 -68 0 -7 -7 -20 -15 -28 -10 -10 -15 -35 -15 -70 l0 -54 -80
-79 c-44 -43 -80 -82 -80 -87 0 -5 -11 -31 -25 -59 -19 -40 -24 -66 -25 -127
0 -43 -4 -78 -9 -78 -5 0 -14 -13 -20 -30 -5 -16 -17 -30 -25 -30 -9 0 -16 -3
-16 -7 0 -5 -13 -17 -30 -28 -16 -11 -34 -32 -39 -47 -5 -15 -19 -35 -30 -45
-12 -9 -21 -25 -21 -33 0 -9 -5 -21 -12 -28 -18 -18 -10 -87 17 -138 28 -52
32 -109 10 -138 -9 -12 -15 -41 -15 -71 0 -28 -5 -56 -11 -62 -7 -7 -14 -58
-17 -117 -3 -87 -1 -111 12 -131 9 -13 16 -33 16 -44 0 -11 7 -41 15 -66 14
-41 14 -47 0 -67 -8 -13 -15 -39 -15 -60 0 -20 -4 -39 -9 -43 -5 -3 -13 -34
-16 -70 -4 -36 -11 -68 -16 -71 -5 -3 -9 -36 -9 -73 0 -39 -5 -72 -12 -79 -7
-7 -13 -58 -16 -134 -2 -68 -8 -128 -13 -133 -4 -6 -11 -110 -14 -230 -4 -121
-11 -224 -16 -230 -5 -5 -9 -53 -9 -106 0 -54 -4 -100 -9 -103 -4 -3 -11 -22
-14 -42 -5 -28 0 -45 19 -75 36 -57 12 -48 -64 26 -36 36 -74 65 -83 65 -9 0
-22 7 -29 15 -9 10 -31 15 -73 15 -48 0 -66 -5 -91 -24 -61 -47 -136 -127
-136 -145 0 -10 -6 -23 -13 -29 -7 -6 -14 -26 -15 -44 -2 -18 -8 -36 -15 -40
-16 -10 -16 -469 0 -489 5 -8 13 -41 16 -73 3 -32 11 -64 16 -69 6 -6 11 -26
11 -45 0 -18 5 -42 10 -52 6 -11 12 -37 14 -57 3 -21 5 -40 6 -43 1 -3 2 -13
1 -22 -1 -10 2 -18 7 -18 5 0 13 -25 17 -55 3 -30 11 -57 16 -60 5 -4 9 -19 9
-34 0 -15 4 -31 9 -36 6 -6 12 -23 15 -39 3 -16 10 -34 16 -40 5 -5 10 -19 10
-31 0 -24 62 -150 89 -181 10 -12 22 -30 25 -41 15 -48 165 -79 230 -47 33 16
86 19 86 4 0 -5 9 -10 20 -10 11 0 28 -8 38 -18 22 -22 82 -142 82 -163 0 -8
4 -19 9 -24 5 -6 11 -28 13 -50 3 -22 9 -50 16 -61 6 -12 9 -24 5 -27 -3 -4 2
-18 11 -31 9 -14 16 -36 16 -49 0 -13 7 -32 15 -43 8 -10 15 -29 15 -40 0 -12
7 -35 15 -50 8 -16 15 -38 15 -49 0 -12 4 -25 9 -30 6 -6 12 -21 14 -35 3 -14
21 -56 41 -94 20 -38 36 -77 36 -86 0 -10 7 -23 15 -30 8 -7 15 -19 15 -27 0
-8 7 -21 15 -29 8 -9 15 -24 15 -35 0 -10 5 -19 10 -19 6 0 10 -7 10 -14 0 -8
14 -35 30 -59 16 -25 30 -48 30 -53 0 -4 11 -22 25 -40 14 -18 25 -35 25 -38
0 -13 92 -137 133 -178 15 -16 27 -32 27 -37 0 -4 12 -22 28 -39 55 -63 401
-408 442 -442 75 -62 113 -94 154 -132 22 -21 44 -38 49 -38 5 0 29 -17 55
-39 26 -21 55 -41 65 -44 9 -4 17 -11 17 -17 0 -5 5 -10 12 -10 6 0 26 -11 44
-25 18 -14 39 -25 47 -25 8 0 20 -7 27 -15 7 -8 18 -15 25 -15 16 0 79 -32 83
-42 2 -5 12 -8 22 -8 9 0 23 -7 30 -15 7 -8 21 -15 30 -15 10 0 20 -4 22 -9 2
-6 19 -13 38 -16 19 -3 39 -10 45 -16 5 -5 23 -9 40 -9 17 0 37 -6 43 -13 7
-6 50 -15 95 -20 45 -4 104 -9 131 -12 27 -2 54 -1 60 4 6 5 44 11 84 13 40 3
79 11 85 17 6 6 25 11 42 11 18 0 54 11 81 25 27 14 57 25 67 25 11 0 31 6 45
14 41 21 74 34 105 40 15 4 27 11 27 16 0 6 6 10 13 10 17 0 169 78 182 93 6
7 28 21 50 31 22 11 54 30 72 43 17 13 35 23 40 23 4 0 20 10 34 22 32 29 59
47 82 54 9 4 17 10 17 15 0 4 15 15 34 24 18 9 46 29 61 45 16 17 34 30 41 30
7 0 32 18 55 41 23 22 54 48 67 57 61 40 290 265 321 316 13 20 27 36 32 36 5
0 9 6 9 13 0 6 18 28 40 47 22 19 40 42 40 51 0 9 18 35 40 59 22 24 40 47 40
52 0 5 7 16 15 24 8 9 15 23 15 32 0 10 11 26 25 36 14 10 25 29 25 41 0 13 7
25 15 29 8 3 15 15 15 26 0 11 5 20 10 20 6 0 10 8 10 19 0 10 7 24 15 31 8 7
15 20 15 30 0 10 7 23 15 30 8 7 15 17 15 22 0 15 61 138 72 144 4 3 8 14 8
25 0 10 5 19 10 19 6 0 10 13 10 28 0 16 7 37 15 48 8 10 15 26 15 35 0 9 7
22 15 29 8 7 15 22 15 35 0 31 28 84 64 120 28 27 37 30 89 29 38 -1 64 -7 76
-18 9 -9 31 -16 47 -16 17 0 36 -6 42 -12 10 -10 17 -10 32 0 11 6 28 12 38
12 10 0 23 5 29 11 6 6 22 16 34 23 13 6 37 31 53 56 16 25 36 49 43 53 7 4
13 14 13 22 0 21 32 77 58 100 12 11 22 30 22 42 0 12 4 24 9 27 5 3 12 22 15
41 4 19 11 35 16 35 6 0 10 8 10 19 0 10 7 24 15 31 8 7 15 27 15 45 0 19 3
35 8 37 15 6 42 70 42 99 0 16 4 29 8 29 10 0 42 70 48 107 3 16 9 30 15 31 5
2 9 18 9 37 0 18 7 38 15 45 8 7 15 27 15 44 0 18 5 37 10 42 6 6 13 38 16 70
3 32 10 63 15 69 13 13 11 292 -2 334 -40 126 -112 221 -167 221 -18 0 -35 7
-40 16 -8 14 -12 14 -43 1 -57 -24 -132 -47 -137 -43 -2 3 -3 62 -3 131 1 85
-2 132 -10 141 -14 17 -13 175 1 184 5 3 10 59 11 125 2 68 8 130 15 143 6 12
12 69 13 125 1 61 7 107 14 116 9 10 13 98 15 302 3 248 2 293 -12 320 -9 18
-16 46 -16 64 0 17 -7 40 -15 51 -8 10 -15 29 -15 40 0 26 -79 184 -91 184 -5
0 -9 6 -9 13 0 6 -15 28 -33 49 -75 85 -77 88 -77 127 0 22 5 43 10 46 12 8
14 185 1 185 -4 0 -11 21 -14 48 -6 44 -81 213 -99 220 -4 2 -8 8 -8 14 0 6
-11 21 -25 34 -14 13 -25 27 -25 31 0 11 -83 93 -94 93 -4 0 -32 25 -62 55
-30 30 -61 55 -68 55 -8 0 -24 11 -37 25 -13 13 -29 25 -36 25 -15 0 -77 33
-81 43 -2 4 -13 7 -23 7 -11 0 -30 11 -43 25 -13 14 -31 25 -40 25 -9 0 -19 7
-22 15 -4 8 -16 15 -28 15 -12 0 -33 11 -48 25 -15 14 -31 25 -36 25 -5 0 -22
13 -38 30 -16 16 -36 30 -45 30 -9 0 -27 11 -40 25 -13 13 -30 25 -38 25 -8 0
-27 14 -43 30 -15 17 -37 30 -48 30 -11 0 -20 5 -20 10 0 6 -8 10 -18 10 -10
0 -31 14 -47 30 -16 17 -37 30 -47 30 -10 0 -18 5 -18 10 0 6 -11 10 -24 10
-13 0 -26 7 -30 15 -3 8 -16 15 -30 15 -13 0 -26 7 -30 15 -3 8 -15 15 -26 15
-11 0 -20 5 -20 10 0 6 -11 10 -24 10 -13 0 -26 7 -30 15 -3 8 -16 15 -30 15
-13 0 -26 7 -30 15 -3 8 -16 15 -30 15 -14 0 -28 5 -31 10 -3 6 -17 10 -29 10
-13 0 -29 7 -36 15 -8 9 -30 15 -60 15 -30 0 -50 5 -53 13 -3 7 -24 14 -48 16
-24 1 -48 6 -53 12 -6 5 -18 9 -27 9 -9 0 -22 7 -29 15 -7 8 -21 15 -31 15
-11 0 -19 4 -19 8 0 9 -69 42 -87 42 -6 0 -16 7 -23 15 -7 8 -27 15 -44 15
-17 0 -40 7 -50 15 -12 9 -41 15 -71 15 -28 0 -56 5 -61 10 -6 6 -68 11 -152
11 -109 1 -144 4 -153 15 -6 8 -19 14 -29 14 -10 0 -23 7 -30 15 -7 8 -21 15
-30 15 -10 0 -20 4 -22 9 -1 5 -25 12 -52 14 -27 3 -52 11 -56 17 -10 15 -177
7 -193 -9 -6 -6 -19 -11 -29 -11 -10 0 -18 -4 -18 -10 0 -5 -22 -10 -49 -10
-28 0 -53 5 -56 10 -3 6 -15 10 -26 10 -11 0 -22 7 -25 15 -4 8 -16 15 -29 15
-13 0 -25 7 -29 15 -3 8 -14 15 -25 15 -11 0 -23 5 -26 10 -3 6 -18 10 -33 10
-15 1 -38 7 -52 15 -34 19 -80 19 -110 -2z"/>
</g>
</svg>
